REM DIRINDEX 1\2,1\3
REM DIRNAME folder01,folder02,folder03
TITLE ""
FILE "Track90.mp3" MP3
  TRACK 01 AUDIO
    TITLE "2:cjc103_785"
    INDEX 01 00:00:00
  TRACK 02 AUDIO
    TITLE "0:"
    INDEX 01 00:30:06
  TRACK 03 AUDIO
    TITLE "3:cjc103_786"
    INDEX 01 00:30:65
  TRACK 04 AUDIO
    TITLE "0:"
    INDEX 01 00:33:26
  TRACK 05 AUDIO
    TITLE "2:cjc103_787"
    INDEX 01 00:34:10
  TRACK 06 AUDIO
    TITLE "0:"
    INDEX 01 01:25:19
